<?xml version="1.0" encoding="utf-8"?>
<!-- Generator: Adobe Illustrator 18.0.0, SVG Export Plug-In . SVG Version: 6.00 Build 0)  -->
<!DOCTYPE svg PUBLIC "-//W3C//DTD SVG 1.1//EN" "http://www.w3.org/Graphics/SVG/1.1/DTD/svg11.dtd">
<svg version="1.1" id="Слой_1" xmlns="http://www.w3.org/2000/svg" xmlns:xlink="http://www.w3.org/1999/xlink" x="0px" y="0px"
	 viewBox="0 0 1024 466.8" enable-background="new 0 0 1024 466.8" xml:space="preserve">
<path fill="#000000"      d="
	M886.1,22c-208,33.8-295.7,108.1-323.3,137.3c-1.6-6-6.2-9.4-11.5-9.4H469c-4.5,0-8.4,2.1-10.5,6.6
	C428.1,125.7,339.6,55.2,137.9,22.4c0,0-195-68.7-117,72.2c0,0-8.8,138.7,14.2,182.7c0,0,21.9,62,10.9,102.9c0,0-36,82.8,57.2,80.2
	c0,0,245.9-21.2,356-151.5c2.2,3.7,5.7,7,9.7,7h82.2c4.9,0,9.2-4.6,11.1-9.8C671.3,439,920.7,461,920.7,461
	c93.1,2.6,57.3-80.5,57.3-80.5c-10.9-40.9,10.9-103.1,10.9-103.1c22.9-44,14.1-182.9,14.1-182.9C1081.1-46.5,886.1,22,886.1,22z"/>
</svg>
