<?xml version="1.0" encoding="utf-8"?>
<!-- Generator: Adobe Illustrator 18.0.0, SVG Export Plug-In . SVG Version: 6.00 Build 0)  -->
<!DOCTYPE svg PUBLIC "-//W3C//DTD SVG 1.1//EN" "http://www.w3.org/Graphics/SVG/1.1/DTD/svg11.dtd">
<svg version="1.1" id="Слой_1" xmlns="http://www.w3.org/2000/svg" xmlns:xlink="http://www.w3.org/1999/xlink" x="0px" y="0px"
	 viewBox="0 0 768 1024" enable-background="new 0 0 768 1024" xml:space="preserve">
<path fill="#000000"      d="
	M379.9,276.1c0,0-42.4-41.8-49.5-57.1c0,0-9-15.4-23.1-21.2l-3.1,8.3c0,0-11.4-17.9-32.5-19.9v6.1c0,0-2.5-6.1-14.6-6.1l-10.7-5.8
	c0,0-3.1,30,0.1,38.3c0,0-42.8-13.4-53-9.6l3,7.7c0,0-14.8-5.8-22.6-3.8v8.2l-19-0.5c0,0-3.7,10.9,0.1,15.3c0,0-28,5.8-44,12.1
	l-5.7,1.3l3.2,7c0,0-23.6,5.3-37.7,19.6l-26.2,11.4l-9.6,9.3h28.8c0,0,33.1,11.1,44,13l-3.2,2.4c0,0,21.7,7.6,27.5,7l-5.8,0.6
	c0,0,27.5,0.6,35.8,7c0,0,21.1-0.6,37.7,9.6c0,0,16.6,6.5-32,13.6l-35.8,13.6H115l2.5,5.7l-23,6.3l5.8,7.6c0,0-35.8,10.2-42.2,20.4
	l5.8,3.8l-22.4,15.3l4.5,3.2c0,0-22.4,11.5-28.1,20.4c0,0,17.3-1.3,26.2,5.1l-6.4,3.8c0,0,38.3,17.6,46.6,14.4c0,0-8.9,19.5-30,31.7
	h7.4c0,0-15.8,15.6-20.2,21.1h8l-16.3,18c0,0,7.7,11.8,14.1,9.8c0,0-10.2,11-10.9,23.3h5.3l-14.3,23.3H35l-12.7,21.5l1.3,11.4
	l-12.8,15.3L5,672.5c0,0,21.7-28.8,37.1-33.9c0,0,17.3-9,22.4-13.4l-5.8,9.6c0,0,38.3-13.4,42.2-26.2l10.2,14.1c0,0,16.6-14.7,23-23
	l1.9,8.3c0,0,26.2-21.7,30.7-28.8c0,0,19.2,7.7,21.1,16.6l16-18.5c0,0,10.2-1.9,17.9-16.6c0,0,18.5-15.3,25.6-32.6l42.8-47.9
	c0,0,6.4-3.8,3.2,9.6l-21.7,32l-39,39.6l5.8,3.8l-23.6,15.3l7.7,0.6l-20.4,20.4c0,0,12.1,23.6,24.3,18.5c0,0-21.7,28.8-25.6,40.9
	l6.4-0.6L189,694.2l11.5,7.7l-8,36.4l6.1,3.9c0,0-0.8,21.5-6.1,28.2h5.9c0,0-11.9,23.2-11.9,35.9c0,0,19.2-24.4,32-27
	c0,0,22.4-10.3,25.6-19.9l1.3,9.6c0,0,43.5-31.3,47.3-40.3l-10.9,59.4l5.1-0.6l-1.9,33.2l5.1-2.6c0,0-3.2,25.6,0.6,30l8.9-6.4
	c0,0,24.9,0,30.7-6.4c0,0,2.6,46.7,17.3,57.5l3.8-5.8c0,0,9.6,3.2,10.2,21.7l5.1-4.5l1.9,23.6l5.8-3.2c0,0,3.5,19,5.2,33
	c0,0,1.7,32.6,6.2,38.1h2.1c4.4-5.6,5.7-38.1,5.7-38.1c1.8-14.1,5.1-32.8,5.1-32.8l5.7,3.1l1.9-23.7l5.1,4.4
	c0.6-18.5,10.2-21.7,10.2-21.7l3.8,5.7c14.7-10.9,17.3-57.5,17.3-57.5c5.8,6.4,30.7,6.4,30.7,6.4l8.9,6.4c3.8-4.5,0.6-30,0.6-30
	l5.1,2.6l-1.9-33.2l5.1,0.6l-10.9-59.4c3.8,8.9,47.3,40.3,47.3,40.3l1.3-9.6c3.2,9.6,25.6,19.8,25.6,19.8c12.8,2.6,32,27.1,32,27.1
	c0-12.8-11.9-35.9-11.9-35.9h5.9c-5.4-6.7-6.1-28.2-6.1-28.2l6.1-3.8l-8-36.5l11.5-7.7l-17.9-33.9l6.4,0.6
	c-3.8-12.1-25.6-40.9-25.6-40.9c12.1,5.1,24.3-18.5,24.3-18.5l-20.5-20.5l7.7-0.6l-23.6-15.3l5.8-3.8l-39-39.6l-21.7-32
	c-3.2-13.4,3.2-9.6,3.2-9.6l42.8,47.9c7,17.3,25.6,32.6,25.6,32.6c7.7,14.7,17.9,16.6,17.9,16.6l16,18.5
	c1.9-8.9,21.1-16.6,21.1-16.6c4.5,7,30.7,28.8,30.7,28.8l1.9-8.3c6.4,8.3,23,23,23,23l10.2-14.1c3.8,12.8,42.2,26.2,42.2,26.2
	l-5.8-9.6c5.1,4.5,22.4,13.4,22.4,13.4c15.3,5.1,37.1,33.9,37.1,33.9l-5.8-27.5l-12.8-15.3l1.3-11.2L738,596.9h7.6l-14.3-23.3h5.3
	c-0.6-12.2-10.9-23.4-10.9-23.4c6.4,1.9,14.1-9.6,14.1-9.6l-16.3-18.2h8c-4.5-5.6-20.2-21.1-20.2-21.1h7.4
	c-21.1-12.2-30-31.7-30-31.7c8.3,3.2,46.6-14.3,46.6-14.3l-6.4-3.9c8.9-6.4,26.2-5.1,26.2-5.1c-5.8-8.9-28.1-20.5-28.1-20.5l4.5-3.2
	l-22.4-15.3l5.8-3.8c-6.4-10.2-42.2-20.5-42.2-20.5l5.8-7.7l-23-6.1l2.5-5.7h-17.2L605,349.9c-48.6-7-32-13.4-32-13.4
	c16.6-10.2,37.7-9.7,37.7-9.7c8.3-6.4,35.8-7,35.8-7l-5.8-0.7c5.8,0.6,27.5-7,27.5-7l-3.2-2.3c10.9-1.9,44-13,44-13H738l-9.6-9.3
	l-26.2-11.3c-14.1-14.3-37.7-19.7-37.7-19.7l3.2-7.1l-5.8-1.3c-16-6.4-44.1-12.2-44.1-12.2c3.8-4.5-0.4-15.3-0.4-15.3l-19.8,0.5V213
	c-7.8-1.9-21.8,3.8-21.8,3.8l3.6-7.7c-10.2-3.8-53,9.6-53,9.6c3.2-8.3,0-38.3,0-38.3l-11.2,5.8c-12.1,0-15.4,6.1-15.4,6.1v-6.1
	C478.6,188.1,468,206,468,206l-2.4-8.3c-14.1,5.8-23,21.2-23,21.2c-7,15.3-49.4,57.1-49.4,57.1s-7.3-66-73.8-165.2
	c0,0-44.4-63.1-31.5-81.2c0,0,4.1-9.3-8.2-9.3c0,0-12.3-2.9-9.9,9.3c0,0-0.6,28.6,38,81.8c0,0,53,77.1,72,147.2
	C379.6,258.6,385,273.1,379.9,276.1z"/>
</svg>
